<svg width="52" height="52" viewBox="0 0 52 52" fill="none" xmlns="http://www.w3.org/2000/svg">
<rect x="1.5" y="1.5" width="49" height="49" rx="14.5" fill="#FED7AA"/>
<rect x="1.5" y="1.5" width="49" height="49" rx="14.5" stroke="#262626" stroke-width="3"/>
<path fill-rule="evenodd" clip-rule="evenodd" d="M40.9421 14.1378L40.0557 16.5162L38.9535 19.0682C37.9337 21.2562 36.5304 23.8142 34.852 25.5795C33.2496 27.2648 30.8315 28.8174 28.8948 29.9202C29.3926 32.318 28.7108 34.9116 26.8499 36.7726C23.4356 40.187 19.6219 40.1876 16.7842 39.3441C15.2664 38.8928 13.7529 38.1631 12.476 37.1937L11.1759 36.1142C10.8779 35.862 10.8968 35.3997 11.2162 35.1753L11.7157 34.8193C12.8103 34.0214 13.9395 33.0415 14.2094 31.6922C14.3814 30.3002 14.48 29.5415 14.5051 29.4161C14.7123 28.3799 15.1509 27.2032 16.2158 26.1383C18.0766 24.2776 20.6701 23.5958 23.0678 24.0935C24.1707 22.1567 25.7233 19.7385 27.4088 18.1361C29.1739 16.4578 31.7319 15.0545 33.9199 14.0346L36.4719 12.9324L38.8503 12.046C40.1489 11.6025 41.3856 12.8392 40.9421 14.1378ZM18.3426 28.2653C17.8124 28.7954 17.5818 29.3693 17.4545 30.0059C17.2824 31.3981 17.1838 32.1569 17.1588 32.2822C16.8869 33.6416 16.0923 34.7634 15.43 35.5129C16.038 35.8538 16.7948 36.2092 17.6413 36.461C19.7219 37.0795 22.2887 37.0801 24.7231 34.6457C26.4851 32.8838 26.4851 30.0271 24.7231 28.2653C22.9611 26.5033 20.1045 26.5033 18.3426 28.2653ZM25.8465 25.2948C26.199 25.5422 26.535 25.8234 26.8499 26.1383C27.1648 26.4532 27.4459 26.7892 27.6933 27.1416C28.2818 26.8005 28.8889 26.4304 29.4826 26.0412L29.4368 25.94C29.2625 25.5681 28.9573 25.0555 28.4449 24.5431C28.0059 24.1041 27.5666 23.8172 27.2159 23.6344L26.9469 23.5056C26.5577 24.0992 26.1876 24.7063 25.8465 25.2948ZM37.039 15.9491C36.4628 16.1877 35.8368 16.4597 35.1907 16.7608C33.072 17.7484 30.8802 18.9858 29.4813 20.316C29.245 20.5405 29.0085 20.7894 28.7734 21.057C29.319 21.3589 29.9502 21.7947 30.5719 22.4164C31.1935 23.038 31.6293 23.6692 31.9311 24.2147C32.1987 23.9796 32.4476 23.7431 32.6721 23.507C34.0023 22.1079 35.2397 19.9161 36.2273 17.7974C36.5284 17.1513 36.8003 16.5253 37.039 15.9491Z" fill="#262626"/>
</svg>
