<svg width="52" height="52" viewBox="0 0 52 52" fill="none" xmlns="http://www.w3.org/2000/svg">
<rect x="1.5" y="1.5" width="49" height="49" rx="14.5" fill="#E2E8F0"/>
<rect x="1.5" y="1.5" width="49" height="49" rx="14.5" stroke="#262626" stroke-width="3"/>
<path d="M39.4514 41.97H15.7119C15.2921 41.97 14.8896 41.8033 14.5928 41.5065C14.296 41.2097 14.1293 40.8071 14.1293 40.3874V11.9C14.1293 11.4803 14.296 11.0777 14.5928 10.7809C14.8896 10.4841 15.2921 10.3174 15.7119 10.3174H39.4514C39.8711 10.3174 40.2736 10.4841 40.5704 10.7809C40.8672 11.0777 41.034 11.4803 41.034 11.9V35.6395C41.034 36.0592 40.8672 36.4618 40.5704 36.7586C40.2736 37.0554 39.8711 37.2221 39.4514 37.2221C39.0316 37.2221 38.6291 37.0554 38.3323 36.7586C38.0355 36.4618 37.8687 36.0592 37.8687 35.6395V13.4826H17.2945V38.8048H39.4514C39.8711 38.8048 40.2736 38.9715 40.5704 39.2683C40.8672 39.5651 41.034 39.9676 41.034 40.3874C41.034 40.8071 40.8672 41.2097 40.5704 41.5065C40.2736 41.8033 39.8711 41.97 39.4514 41.97Z" fill="#262626"/>
<path d="M18.8771 18.2305H12.5466C12.1269 18.2305 11.7243 18.0638 11.4275 17.767C11.1307 17.4702 10.964 17.0676 10.964 16.6479C10.964 16.2282 11.1307 15.8256 11.4275 15.5288C11.7243 15.232 12.1269 15.0653 12.5466 15.0653H18.8771C19.2969 15.0653 19.6994 15.232 19.9962 15.5288C20.293 15.8256 20.4598 16.2282 20.4598 16.6479C20.4598 17.0676 20.293 17.4702 19.9962 17.767C19.6994 18.0638 19.2969 18.2305 18.8771 18.2305Z" fill="#262626"/>
<path d="M18.8771 24.5611H12.5466C12.1269 24.5611 11.7243 24.3943 11.4275 24.0975C11.1307 23.8007 10.964 23.3982 10.964 22.9784C10.964 22.5587 11.1307 22.1561 11.4275 21.8593C11.7243 21.5625 12.1269 21.3958 12.5466 21.3958H18.8771C19.2969 21.3958 19.6994 21.5625 19.9962 21.8593C20.293 22.1561 20.4598 22.5587 20.4598 22.9784C20.4598 23.3982 20.293 23.8007 19.9962 24.0975C19.6994 24.3943 19.2969 24.5611 18.8771 24.5611Z" fill="#262626"/>
<path d="M18.8771 30.8916H12.5466C12.1269 30.8916 11.7243 30.7248 11.4275 30.428C11.1307 30.1312 10.964 29.7287 10.964 29.309C10.964 28.8892 11.1307 28.4867 11.4275 28.1899C11.7243 27.8931 12.1269 27.7263 12.5466 27.7263H18.8771C19.2969 27.7263 19.6994 27.8931 19.9962 28.1899C20.293 28.4867 20.4598 28.8892 20.4598 29.309C20.4598 29.7287 20.293 30.1312 19.9962 30.428C19.6994 30.7248 19.2969 30.8916 18.8771 30.8916Z" fill="#262626"/>
<path d="M18.8771 37.2221H12.5466C12.1269 37.2221 11.7243 37.0554 11.4275 36.7586C11.1307 36.4618 10.964 36.0592 10.964 35.6395C10.964 35.2198 11.1307 34.8172 11.4275 34.5204C11.7243 34.2236 12.1269 34.0569 12.5466 34.0569H18.8771C19.2969 34.0569 19.6994 34.2236 19.9962 34.5204C20.293 34.8172 20.4598 35.2198 20.4598 35.6395C20.4598 36.0592 20.293 36.4618 19.9962 36.7586C19.6994 37.0554 19.2969 37.2221 18.8771 37.2221Z" fill="#262626"/>
<path d="M31.5382 24.5611H25.2077C24.7879 24.5611 24.3854 24.3943 24.0886 24.0975C23.7918 23.8007 23.625 23.3982 23.625 22.9784C23.625 22.5587 23.7918 22.1561 24.0886 21.8593C24.3854 21.5625 24.7879 21.3958 25.2077 21.3958H31.5382C31.9579 21.3958 32.3605 21.5625 32.6573 21.8593C32.9541 22.1561 33.1208 22.5587 33.1208 22.9784C33.1208 23.3982 32.9541 23.8007 32.6573 24.0975C32.3605 24.3943 31.9579 24.5611 31.5382 24.5611Z" fill="#262626"/>
<path d="M31.5382 30.8916H25.2077C24.7879 30.8916 24.3854 30.7248 24.0886 30.428C23.7918 30.1312 23.625 29.7287 23.625 29.309C23.625 28.8892 23.7918 28.4867 24.0886 28.1899C24.3854 27.8931 24.7879 27.7263 25.2077 27.7263H31.5382C31.9579 27.7263 32.3605 27.8931 32.6573 28.1899C32.9541 28.4867 33.1208 28.8892 33.1208 29.309C33.1208 29.7287 32.9541 30.1312 32.6573 30.428C32.3605 30.7248 31.9579 30.8916 31.5382 30.8916Z" fill="#262626"/>
</svg>
