<svg xmlns="http://www.w3.org/2000/svg" width="25" height="26" viewBox="0 0 25 26" fill="none">
<path d="M12.4259 0.854492C15.647 0.854492 18.7362 2.13408 21.0139 4.41177C23.2916 6.68946 24.5712 9.77867 24.5712 12.9998C24.5712 16.2209 23.2916 19.3102 21.0139 21.5878C18.7362 23.8655 15.647 25.1451 12.4259 25.1451C9.20475 25.1451 6.11555 23.8655 3.83786 21.5878C1.56017 19.3102 0.280579 16.2209 0.280579 12.9998C0.280579 9.77867 1.56017 6.68946 3.83786 4.41177C6.11555 2.13408 9.20475 0.854492 12.4259 0.854492ZM14.2476 8.31118C15.1497 8.31118 15.8819 7.68488 15.8819 6.75669C15.8819 5.82851 15.148 5.2022 14.2476 5.2022C13.3454 5.2022 12.6167 5.82851 12.6167 6.75669C12.6167 7.68488 13.3454 8.31118 14.2476 8.31118ZM14.565 18.0736C14.565 17.8879 14.6292 17.4056 14.5928 17.1315L13.1667 18.7728C12.8718 19.0833 12.5022 19.2984 12.3287 19.2412C12.25 19.2122 12.1842 19.1561 12.1432 19.083C12.1022 19.0098 12.0886 18.9244 12.1049 18.8422L14.4818 11.3334C14.6761 10.3809 14.1417 9.51175 13.0088 9.40071C11.8135 9.40071 10.0543 10.6134 8.98381 12.1523C8.98381 12.3362 8.94911 12.7942 8.98554 13.0683L10.4099 11.4254C10.7048 11.1183 11.0484 10.9014 11.2219 10.9604C11.3073 10.9911 11.3774 11.0541 11.4169 11.1358C11.4565 11.2175 11.4625 11.3115 11.4335 11.3976L9.0775 18.8699C8.80511 19.7443 9.32038 20.6014 10.5695 20.7957C12.4085 20.7957 13.4946 19.6125 14.5668 18.0736H14.565Z" fill="black"/>
</svg>