<svg width="25" height="25" viewBox="0 0 25 25" fill="none" xmlns="http://www.w3.org/2000/svg">
<path d="M12.1453 0C15.3665 0 18.4557 1.27959 20.7333 3.55728C23.011 5.83497 24.2906 8.92418 24.2906 12.1453C24.2906 15.3665 23.011 18.4557 20.7333 20.7333C18.4557 23.011 15.3665 24.2906 12.1453 24.2906C8.92418 24.2906 5.83497 23.011 3.55728 20.7333C1.27959 18.4557 0 15.3665 0 12.1453C0 8.92418 1.27959 5.83497 3.55728 3.55728C5.83497 1.27959 8.92418 0 12.1453 0ZM13.967 7.45669C14.8691 7.45669 15.6013 6.83038 15.6013 5.9022C15.6013 4.97402 14.8674 4.34771 13.967 4.34771C13.0648 4.34771 12.3362 4.97402 12.3362 5.9022C12.3362 6.83038 13.0648 7.45669 13.967 7.45669ZM14.2845 17.2191C14.2845 17.0335 14.3487 16.5511 14.3122 16.277L12.8861 17.9183C12.5912 18.2288 12.2216 18.4439 12.0482 18.3867C11.9695 18.3577 11.9037 18.3016 11.8626 18.2285C11.8216 18.1553 11.808 18.0699 11.8244 17.9877L14.2012 10.4789C14.3955 9.52645 13.8612 8.65726 12.7282 8.54622C11.5329 8.54622 9.77368 9.75893 8.70323 11.2978C8.70323 11.4817 8.66853 11.9397 8.70497 12.2138L10.1293 10.5709C10.4243 10.2638 10.7678 10.0469 10.9413 10.1059C11.0268 10.1366 11.0968 10.1996 11.1364 10.2813C11.1759 10.363 11.1819 10.457 11.1529 10.5431L8.79692 18.0154C8.52453 18.8898 9.0398 19.7469 10.2889 19.9412C12.128 19.9412 13.214 18.758 14.2862 17.2191H14.2845Z" fill="black"/>
</svg>
