<svg width="52" height="52" viewBox="0 0 52 52" fill="none" xmlns="http://www.w3.org/2000/svg">
<rect x="1.5" y="1.5" width="49" height="49" rx="14.5" fill="#FEF08A"/>
<rect x="1.5" y="1.5" width="49" height="49" rx="14.5" stroke="#262626" stroke-width="3"/>
<path d="M23.494 34.1443C23.494 34.3088 23.4616 34.4718 23.3986 34.6238C23.3357 34.7758 23.2434 34.9139 23.127 35.0303C23.0107 35.1466 22.8725 35.2389 22.7205 35.3019C22.5685 35.3649 22.4056 35.3973 22.241 35.3973H18.482V39.1563C18.482 39.4886 18.35 39.8073 18.115 40.0423C17.88 40.2773 17.5613 40.4093 17.229 40.4093C16.8967 40.4093 16.578 40.2773 16.343 40.0423C16.108 39.8073 15.976 39.4886 15.976 39.1563V35.3973H12.217C11.8847 35.3973 11.566 35.2653 11.331 35.0303C11.096 34.7953 10.964 34.4766 10.964 34.1443C10.964 33.812 11.096 33.4932 11.331 33.2583C11.566 33.0233 11.8847 32.8913 12.217 32.8913H15.976V29.1323C15.976 28.7999 16.108 28.4812 16.343 28.2463C16.578 28.0113 16.8967 27.8793 17.229 27.8793C17.5613 27.8793 17.88 28.0113 18.115 28.2463C18.35 28.4812 18.482 28.7999 18.482 29.1323V32.8913H22.241C22.4056 32.8913 22.5685 32.9237 22.7205 32.9866C22.8725 33.0496 23.0107 33.1419 23.127 33.2583C23.2434 33.3746 23.3357 33.5127 23.3986 33.6648C23.4616 33.8168 23.494 33.9797 23.494 34.1443ZM22.241 15.3492H12.217C11.8847 15.3492 11.566 15.4813 11.331 15.7162C11.096 15.9512 10.964 16.2699 10.964 16.6022C10.964 16.9346 11.096 17.2533 11.331 17.4883C11.566 17.7232 11.8847 17.8552 12.217 17.8552H22.241C22.5733 17.8552 22.892 17.7232 23.127 17.4883C23.362 17.2533 23.494 16.9346 23.494 16.6022C23.494 16.2699 23.362 15.9512 23.127 15.7162C22.892 15.4813 22.5733 15.3492 22.241 15.3492ZM29.759 32.9017H39.783C40.1153 32.9017 40.4341 32.7697 40.669 32.5347C40.904 32.2997 41.036 31.981 41.036 31.6487C41.036 31.3164 40.904 30.9976 40.669 30.7627C40.4341 30.5277 40.1153 30.3957 39.783 30.3957H29.759C29.4267 30.3957 29.108 30.5277 28.873 30.7627C28.638 30.9976 28.506 31.3164 28.506 31.6487C28.506 31.981 28.638 32.2997 28.873 32.5347C29.108 32.7697 29.4267 32.9017 29.759 32.9017ZM39.783 35.3869H29.759C29.4267 35.3869 29.108 35.5189 28.873 35.7539C28.638 35.9889 28.506 36.3076 28.506 36.6399C28.506 36.9722 28.638 37.2909 28.873 37.5259C29.108 37.7609 29.4267 37.8929 29.759 37.8929H39.783C40.1153 37.8929 40.4341 37.7609 40.669 37.5259C40.904 37.2909 41.036 36.9722 41.036 36.6399C41.036 36.3076 40.904 35.9889 40.669 35.7539C40.4341 35.5189 40.1153 35.3869 39.783 35.3869ZM30.126 21.2472C30.2424 21.3636 30.3805 21.4559 30.5325 21.5189C30.6845 21.5818 30.8475 21.6143 31.012 21.6143C31.1766 21.6143 31.3395 21.5818 31.4915 21.5189C31.6435 21.4559 31.7817 21.3636 31.898 21.2472L34.771 18.3742L37.644 21.2472C37.7604 21.3637 37.8985 21.4561 38.0505 21.5192C38.2026 21.5822 38.3656 21.6147 38.5302 21.6148C38.6948 21.6148 38.8578 21.5825 39.0099 21.5195C39.162 21.4565 39.3002 21.3642 39.4166 21.2478C39.533 21.1314 39.6253 20.9932 39.6883 20.8411C39.7512 20.689 39.7836 20.526 39.7836 20.3614C39.7835 20.1968 39.751 20.0338 39.688 19.8818C39.6249 19.7297 39.5325 19.5916 39.416 19.4753L36.543 16.6022L39.416 13.7292C39.6508 13.4942 39.7826 13.1756 39.7824 12.8434C39.7823 12.5112 39.6503 12.1927 39.4155 11.9578C39.1806 11.7229 38.862 11.5909 38.5299 11.5908C38.1977 11.5907 37.8791 11.7225 37.644 11.9573L34.771 14.8303L31.898 11.9573C31.663 11.7225 31.3444 11.5907 31.0122 11.5908C30.68 11.5909 30.3615 11.7229 30.1266 11.9578C29.8917 12.1927 29.7597 12.5112 29.7596 12.8434C29.7595 13.1756 29.8913 13.4942 30.126 13.7292L32.999 16.6022L30.126 19.4753C30.0097 19.5916 29.9174 19.7297 29.8544 19.8818C29.7914 20.0338 29.759 20.1967 29.759 20.3613C29.759 20.5258 29.7914 20.6887 29.8544 20.8408C29.9174 20.9928 30.0097 21.1309 30.126 21.2472Z" fill="#262626"/>
</svg>
