<svg width="32" height="32" viewBox="0 0 32 32" fill="none" xmlns="http://www.w3.org/2000/svg">
<path d="M0 5.60092C3.75141e-07 4.94396 0.0240373 4.29232 0.0712944 3.64691L0.086622 3.42642C0.123936 2.89117 0.184891 2.21994 0.539278 1.6044L0.539325 1.60436L0.56909 1.55378C0.882866 1.03359 1.37742 0.581621 1.92251 0.31876L1.92256 0.318713L1.95715 0.302354C2.68495 -0.0352627 3.49795 0.00114601 4.09908 0.00114601H8.60661C9.11213 0.00114567 9.78396 -0.0237439 10.3968 0.202795L10.426 0.213764L10.4717 0.231716C10.9423 0.420742 11.3614 0.719028 11.6944 1.1022L11.7147 1.12583C12.0834 1.56109 12.2874 2.10409 12.4482 2.55106L12.516 2.73935L14.3817 7.87015V7.87025L14.4714 8.1176C14.56 8.36347 14.6434 8.60312 14.7044 8.8199C14.7912 9.12835 14.8654 9.49595 14.8382 9.91519C14.7998 10.5066 14.5977 11.0752 14.2556 11.5579L14.2556 11.558C14.0127 11.9008 13.7234 12.1396 13.4616 12.3245C13.2776 12.4544 13.0619 12.5881 12.8381 12.7232L11.6959 13.4087C13.3011 16.2976 15.7029 18.7012 18.5909 20.3047L19.1413 19.3875C19.3224 19.0855 19.5022 18.7838 19.6754 18.5384C19.8603 18.2766 20.0991 17.9873 20.442 17.7443L20.4876 17.7127C20.9603 17.3898 21.5117 17.199 22.0848 17.1618L22.1239 17.1596C22.5269 17.1392 22.8813 17.2115 23.1801 17.2956C23.3969 17.3566 23.6366 17.4399 23.8825 17.5285L24.1298 17.6182L24.1299 17.6183L29.2606 19.484L29.2607 19.484L29.449 19.5518C29.9039 19.7155 30.4589 19.9241 30.898 20.3058C31.2927 20.6488 31.598 21.0839 31.7859 21.5735C32.0246 22.1944 31.9989 22.88 31.9989 23.3934V27.901C31.9989 28.5113 32.0364 29.3407 31.6812 30.0773L31.6812 30.0773C31.4101 30.6398 30.9374 31.1489 30.3955 31.4608L30.3954 31.4609C29.7799 31.815 29.1088 31.876 28.5737 31.9133L28.3533 31.9287C27.7076 31.976 27.0559 32 26.3991 32C11.8193 32 0 20.1807 0 5.60092ZM3.19986 5.60092C3.19986 18.4135 13.5865 28.8001 26.3991 28.8001C26.978 28.8001 27.5516 28.779 28.1193 28.7374L28.3582 28.7196C28.4294 28.7141 28.4931 28.7088 28.5521 28.7034C28.6605 28.6935 28.733 28.6845 28.7843 28.6764C28.7845 28.6745 28.7847 28.6725 28.7849 28.6705C28.7976 28.5207 28.799 28.3116 28.799 27.901V23.3934C28.799 23.0492 28.7981 22.8698 28.7893 22.7403C28.7891 22.7361 28.7887 22.7322 28.7884 22.7284C28.785 22.7269 28.7814 22.7252 28.7776 22.7235C28.6588 22.671 28.4905 22.6088 28.167 22.4912L23.0364 20.6255C22.661 20.4891 22.461 20.4174 22.3131 20.3758C22.3079 20.3743 22.303 20.3731 22.2983 20.3718C22.2955 20.3757 22.2925 20.3797 22.2895 20.384C22.2009 20.5094 22.0907 20.6911 21.8852 21.0337L21.8851 21.0339L20.5712 23.2235C20.1597 23.9093 19.3066 24.1843 18.574 23.873L18.5393 23.8578C13.981 21.7934 10.2836 18.1102 8.19178 13.5692L8.14265 13.4618C7.80676 12.7215 8.0794 11.847 8.77648 11.4287L10.9662 10.1149L11.1946 9.97749C11.396 9.85564 11.5217 9.77706 11.6158 9.71064C11.6202 9.70754 11.6242 9.70446 11.6282 9.70164C11.6269 9.69699 11.6257 9.69208 11.6242 9.68696C11.5826 9.53907 11.5109 9.33904 11.3744 8.96357L9.50878 3.83295L9.43022 3.61775C9.36067 3.4284 9.31588 3.31148 9.27647 3.22238C9.2748 3.21858 9.2731 3.21499 9.27155 3.21155C9.26781 3.21127 9.2639 3.21094 9.25979 3.21066C9.13019 3.20188 8.95082 3.201 8.60661 3.201H4.09908C3.68838 3.201 3.47922 3.20236 3.32937 3.21511C3.32736 3.21528 3.32539 3.2155 3.32346 3.21567C3.31536 3.26698 3.30645 3.33941 3.29651 3.44789C3.29111 3.50688 3.28593 3.57051 3.28043 3.64166L3.26262 3.88062C3.22105 4.44837 3.19986 5.02204 3.19986 5.60092Z" fill="black"/>
</svg>
